<svg width="32" height="32" viewBox="0 0 32 32" fill="none" xmlns="http://www.w3.org/2000/svg">
<g opacity="0.8">
<path d="M15.9994 31.1351C13.006 31.1351 10.0797 30.2475 7.59077 28.5844C5.10181 26.9213 3.1619 24.5575 2.01636 21.792C0.870816 19.0264 0.571089 15.9832 1.15508 13.0473C1.73907 10.1114 3.18056 7.41454 5.29724 5.29785C7.41393 3.18117 10.1108 1.73968 13.0467 1.15569C15.9826 0.5717 19.0258 0.871426 21.7914 2.01697C24.5569 3.16251 26.9207 5.10242 28.5838 7.59138C30.2469 10.0803 31.1345 13.0066 31.1345 16C31.13 20.0127 29.5339 23.8597 26.6965 26.6971C23.8591 29.5345 20.0121 31.1305 15.9994 31.1351ZM15.9994 1.72974C13.177 1.72974 10.418 2.56668 8.07126 4.13471C5.72453 5.70275 3.89547 7.93146 2.81539 10.539C1.73531 13.1466 1.45271 16.0158 2.00333 18.784C2.55395 21.5522 3.91306 24.0949 5.90879 26.0906C7.90453 28.0863 10.4472 29.4454 13.2154 29.9961C15.9836 30.5467 18.8528 30.2641 21.4604 29.184C24.0679 28.1039 26.2967 26.2749 27.8647 23.9281C29.4327 21.5814 30.2697 18.8224 30.2697 16C30.2653 12.2166 28.7605 8.58946 26.0852 5.91421C23.4099 3.23895 19.7828 1.73409 15.9994 1.72974Z" fill="#313131"/>
<path d="M15.9999 28.3602C13.5553 28.3602 11.1655 27.6353 9.1329 26.2771C7.10028 24.919 5.51604 22.9886 4.58052 20.73C3.645 18.4715 3.40023 15.9863 3.87715 13.5886C4.35407 11.191 5.53127 8.98861 7.25988 7.26C8.98849 5.53139 11.1909 4.3542 13.5885 3.87727C15.9862 3.40035 18.4714 3.64513 20.7299 4.58064C22.9885 5.51616 24.9189 7.1004 26.277 9.13302C27.6352 11.1657 28.3601 13.5554 28.3601 16C28.3564 19.277 27.053 22.4187 24.7358 24.7359C22.4186 27.0531 19.2769 28.3565 15.9999 28.3602ZM15.9999 4.50464C13.7263 4.50464 11.5038 5.17883 9.6134 6.44196C7.72299 7.70508 6.24961 9.50041 5.37955 11.6009C4.50949 13.7014 4.28185 16.0127 4.7254 18.2426C5.16895 20.4725 6.26378 22.5208 7.87143 24.1284C9.47908 25.7361 11.5274 26.8309 13.7572 27.2745C15.9871 27.718 18.2985 27.4904 20.399 26.6203C22.4995 25.7503 24.2948 24.2769 25.5579 22.3865C26.821 20.4961 27.4952 18.2736 27.4952 16C27.4918 12.9523 26.2796 10.0304 24.1245 7.87534C21.9695 5.72029 19.0476 4.50807 15.9999 4.50464Z" fill="#313131"/>
<path d="M15.9998 8.03849C15.8851 8.03849 15.7751 7.99293 15.694 7.91183C15.6129 7.83073 15.5674 7.72074 15.5674 7.60605V6.72259C15.5674 6.60791 15.6129 6.49791 15.694 6.41682C15.7751 6.33572 15.8851 6.29016 15.9998 6.29016C16.1145 6.29016 16.2245 6.33572 16.3056 6.41682C16.3867 6.49791 16.4323 6.60791 16.4323 6.72259V7.60605C16.4323 7.72074 16.3867 7.83073 16.3056 7.91183C16.2245 7.99293 16.1145 8.03849 15.9998 8.03849Z" fill="#313131"/>
<path d="M15.9998 25.7098C15.8851 25.7098 15.7751 25.6643 15.694 25.5832C15.6129 25.5021 15.5674 25.3921 15.5674 25.2774V24.3939C15.5674 24.2792 15.6129 24.1692 15.694 24.0881C15.7751 24.007 15.8851 23.9615 15.9998 23.9615C16.1145 23.9615 16.2245 24.007 16.3056 24.0881C16.3867 24.1692 16.4323 24.2792 16.4323 24.3939V25.2774C16.4323 25.3921 16.3867 25.5021 16.3056 25.5832C16.2245 25.6643 16.1145 25.7098 15.9998 25.7098Z" fill="#313131"/>
<path d="M21.9353 10.4973C21.8498 10.4973 21.7662 10.4719 21.6951 10.4244C21.624 10.3769 21.5686 10.3093 21.5358 10.2303C21.5031 10.1513 21.4946 10.0644 21.5112 9.98053C21.5279 9.89666 21.5691 9.81962 21.6295 9.75914L22.254 9.13427C22.2939 9.09297 22.3416 9.06003 22.3943 9.03737C22.4471 9.0147 22.5038 9.00277 22.5613 9.00227C22.6187 9.00178 22.6756 9.01272 22.7288 9.03446C22.7819 9.0562 22.8302 9.08831 22.8708 9.12892C22.9114 9.16952 22.9435 9.2178 22.9652 9.27094C22.987 9.32409 22.9979 9.38103 22.9974 9.43845C22.9969 9.49587 22.985 9.55261 22.9623 9.60537C22.9397 9.65813 22.9067 9.70584 22.8654 9.74573L22.241 10.3706C22.1599 10.4517 22.0499 10.4973 21.9353 10.4973Z" fill="#313131"/>
<path d="M9.43918 22.9924C9.35366 22.9924 9.27007 22.967 9.19898 22.9195C9.12788 22.872 9.07247 22.8044 9.03975 22.7254C9.00703 22.6464 8.99846 22.5595 9.01514 22.4756C9.03182 22.3918 9.07299 22.3147 9.13345 22.2542L9.75788 21.6294C9.83944 21.5506 9.94867 21.507 10.0621 21.508C10.1754 21.509 10.2839 21.5545 10.3641 21.6347C10.4443 21.7148 10.4897 21.8233 10.4907 21.9367C10.4917 22.05 10.4481 22.1593 10.3693 22.2408L9.74491 22.8657C9.66383 22.9468 9.55386 22.9924 9.43918 22.9924Z" fill="#313131"/>
<path d="M25.2773 16.4324H24.3934C24.2787 16.4324 24.1687 16.3869 24.0876 16.3058C24.0065 16.2247 23.9609 16.1147 23.9609 16C23.9609 15.8853 24.0065 15.7753 24.0876 15.6942C24.1687 15.6131 24.2787 15.5676 24.3934 15.5676H25.2773C25.3919 15.5676 25.5019 15.6131 25.583 15.6942C25.6641 15.7753 25.7097 15.8853 25.7097 16C25.7097 16.1147 25.6641 16.2247 25.583 16.3058C25.5019 16.3869 25.3919 16.4324 25.2773 16.4324Z" fill="#313131"/>
<path d="M7.60636 16.4324H6.72247C6.60778 16.4324 6.49779 16.3869 6.4167 16.3058C6.3356 16.2247 6.29004 16.1147 6.29004 16C6.29004 15.8853 6.3356 15.7753 6.4167 15.6942C6.49779 15.6131 6.60778 15.5676 6.72247 15.5676H7.60636C7.72105 15.5676 7.83104 15.6131 7.91214 15.6942C7.99323 15.7753 8.03879 15.8853 8.03879 16C8.03879 16.1147 7.99323 16.2247 7.91214 16.3058C7.83104 16.3869 7.72105 16.4324 7.60636 16.4324Z" fill="#313131"/>
<path d="M22.5604 22.9924C22.4457 22.9924 22.3357 22.9468 22.2546 22.8657L21.6302 22.2408C21.5514 22.1593 21.5078 22.05 21.5088 21.9367C21.5098 21.8233 21.5553 21.7148 21.6354 21.6347C21.7156 21.5545 21.8241 21.509 21.9375 21.508C22.0509 21.507 22.1601 21.5506 22.2416 21.6294L22.8661 22.2542C22.9265 22.3147 22.9677 22.3918 22.9844 22.4756C23.0011 22.5595 22.9925 22.6464 22.9598 22.7254C22.9271 22.8044 22.8716 22.872 22.8006 22.9195C22.7295 22.967 22.6459 22.9924 22.5604 22.9924Z" fill="#313131"/>
<path d="M10.0641 10.4973C9.94945 10.4973 9.83948 10.4517 9.7584 10.3706L9.13397 9.74573C9.09267 9.70584 9.05972 9.65813 9.03706 9.60537C9.0144 9.55261 9.00247 9.49587 9.00197 9.43845C9.00147 9.38103 9.01241 9.32409 9.03415 9.27094C9.0559 9.2178 9.08801 9.16952 9.12861 9.12892C9.16921 9.08831 9.21749 9.0562 9.27064 9.03446C9.32378 9.01272 9.38072 9.00178 9.43814 9.00227C9.49556 9.00277 9.5523 9.0147 9.60506 9.03737C9.65782 9.06003 9.70554 9.09297 9.74543 9.13427L10.3699 9.75914C10.4303 9.81962 10.4715 9.89666 10.4882 9.98053C10.5048 10.0644 10.4963 10.1513 10.4636 10.2303C10.4308 10.3093 10.3754 10.3769 10.3043 10.4244C10.2332 10.4719 10.1496 10.4973 10.0641 10.4973Z" fill="#313131"/>
<path d="M13.6582 17.2973C13.5567 17.2973 13.4584 17.2616 13.3806 17.1965C13.3027 17.1314 13.2502 17.0409 13.2324 16.941C13.2145 16.8411 13.2323 16.7381 13.2827 16.65C13.3331 16.5619 13.4129 16.4944 13.5081 16.4592L15.5682 15.6973V9.94592C15.5682 9.83123 15.6138 9.72124 15.6949 9.64014C15.776 9.55905 15.886 9.51349 16.0007 9.51349C16.1153 9.51349 16.2253 9.55905 16.3064 9.64014C16.3875 9.72124 16.4331 9.83123 16.4331 9.94592V16C16.4331 16.0883 16.406 16.1746 16.3556 16.2471C16.3051 16.3196 16.2336 16.3749 16.1507 16.4056L13.8082 17.2704C13.7602 17.2881 13.7094 17.2972 13.6582 17.2973Z" fill="#313131"/>
</g>
</svg>
