<svg width="24" height="24" viewBox="0 0 24 24" fill="none" xmlns="http://www.w3.org/2000/svg">
<path d="M24 12C24 18.633 18.6321 24 12 24C5.367 24 0 18.6321 0 12C0 5.367 5.36792 0 12 0C18.633 0 24 5.36792 24 12ZM22.125 12C22.125 6.40338 17.5959 1.875 12 1.875C6.40338 1.875 1.875 6.40411 1.875 12C1.875 17.5966 6.40411 22.125 12 22.125C17.5966 22.125 22.125 17.5959 22.125 12Z" fill="#212121"/>
<path d="M6.8187 16.0907H8.72783V17.7273C8.72783 17.8069 8.7533 17.8721 8.80456 17.9231C8.85568 17.9744 8.92102 18 9.00063 18H10.4238C10.4977 18 10.5616 17.9744 10.6156 17.9231C10.6696 17.8721 10.6965 17.8069 10.6965 17.7273V16.0907H15.0005C15.0799 16.0907 15.1453 16.0654 15.1965 16.0141C15.2478 15.9629 15.2733 15.8977 15.2733 15.818V14.7271C15.2733 14.6479 15.2478 14.5823 15.1965 14.5313C15.1454 14.4801 15.0799 14.4544 15.0005 14.4544H10.6964V13.4487H13.5941C14.7304 13.4487 15.6578 13.1024 16.3768 12.409C17.0954 11.7162 17.4549 10.8214 17.4549 9.72434C17.4549 8.62805 17.0954 7.73317 16.3768 7.03972C15.658 6.34695 14.7304 6 13.5941 6H9.00049C8.92086 6 8.85565 6.02562 8.80442 6.07659C8.7533 6.12785 8.72768 6.19348 8.72768 6.27266V11.6336H6.8187C6.7391 11.6336 6.67387 11.6605 6.62263 11.7145C6.57154 11.7685 6.5459 11.8324 6.5459 11.9062V13.176C6.5459 13.2556 6.57137 13.3208 6.62263 13.3721C6.67389 13.4234 6.73896 13.4487 6.8187 13.4487H8.72783V14.4544H6.8187C6.7391 14.4544 6.67387 14.48 6.62263 14.5313C6.57154 14.5823 6.5459 14.6478 6.5459 14.7271V15.818C6.5459 15.8977 6.57137 15.9629 6.62263 16.0141C6.67387 16.0654 6.73907 16.0907 6.8187 16.0907ZM10.6964 7.81552H13.4236C14.0258 7.81552 14.5116 7.9916 14.881 8.34386C15.2502 8.69615 15.435 9.15653 15.435 9.72448C15.435 10.2927 15.2502 10.7532 14.881 11.1051C14.5116 11.4577 14.0258 11.6337 13.4236 11.6337H10.6964V7.81552Z" fill="black"/>
</svg>
